<svg width="24" height="24" viewBox="0 0 24 24" fill="none" xmlns="http://www.w3.org/2000/svg">
    <g clip-path="url(#clip0_3160_15443)">
    <rect width="24" height="24" rx="5" fill="#000C36"/>
    <path fill-rule="evenodd" clip-rule="evenodd" d="M16.9417 5.57535C16.8153 5.39382 16.8215 5.15045 16.9572 4.97606L24.7173 -5L27.9992 -2.18015L19.4542 7.09798C19.2978 7.26785 19.0487 7.31332 18.8427 7.20962L18.8005 7.18839C18.0577 6.81441 17.4188 6.26003 16.9417 5.57535ZM17.5637 10.3073C18.2133 9.50913 18.2891 7.8274 17.3622 7.03106C16.4354 6.23472 15.0093 6.15314 14.1408 7.17871C13.5103 7.92314 13.4476 8.58417 13.3866 9.22603C13.3104 10.0281 13.2371 10.8002 12.0626 11.6678C11.9918 11.72 12.0156 11.8344 12.1018 11.8509C15.9856 12.5947 17.5637 10.3073 17.5637 10.3073Z" fill="url(#paint0_linear_3160_15443)"/>
    <path fill-rule="evenodd" clip-rule="evenodd" d="M16.9417 5.57535C16.8153 5.39382 16.8215 5.15045 16.9572 4.97606L24.7173 -5L27.9992 -2.18015L19.4542 7.09798C19.2978 7.26785 19.0487 7.31332 18.8427 7.20962L18.8005 7.18839C18.0577 6.81441 17.4188 6.26003 16.9417 5.57535ZM17.5637 10.3073C18.2133 9.50913 18.2891 7.8274 17.3622 7.03106C16.4354 6.23472 15.0093 6.15314 14.1408 7.17871C13.5103 7.92314 13.4476 8.58417 13.3866 9.22603C13.3104 10.0281 13.2371 10.8002 12.0626 11.6678C11.9918 11.72 12.0156 11.8344 12.1018 11.8509C15.9856 12.5947 17.5637 10.3073 17.5637 10.3073Z" fill="url(#paint1_radial_3160_15443)"/>
    <path d="M8.21905 10.2723C8.2791 9.78665 8.30912 9.54381 8.35023 9.49736C8.42983 9.40743 8.57017 9.40743 8.64977 9.49736C8.69088 9.54381 8.7209 9.78665 8.78095 10.2723C8.93432 11.5128 9.011 12.133 9.22959 12.6484C9.6423 13.6215 10.4234 14.3916 11.4022 14.7906C11.9206 15.002 12.5418 15.0699 13.7843 15.2058L13.8583 15.2139C14.4342 15.2769 14.7222 15.3084 14.7708 15.3538C14.8556 15.4328 14.8556 15.5672 14.7708 15.6462C14.7222 15.6916 14.4342 15.7231 13.8583 15.7861L13.7843 15.7942C12.5418 15.9301 11.9206 15.998 11.4022 16.2094C10.4234 16.6084 9.6423 17.3785 9.22959 18.3516C9.011 18.867 8.93432 19.4872 8.78095 20.7277C8.7209 21.2134 8.69088 21.4562 8.64977 21.5026C8.57017 21.5926 8.42983 21.5926 8.35023 21.5026C8.30912 21.4562 8.2791 21.2134 8.21905 20.7277C8.06568 19.4872 7.989 18.867 7.77041 18.3516C7.3577 17.3785 6.57661 16.6084 5.5978 16.2094C5.07939 15.998 4.45816 15.9301 3.21569 15.7942L3.1417 15.7861C2.56577 15.7231 2.2778 15.6916 2.2292 15.6462C2.14443 15.5672 2.14443 15.4328 2.2292 15.3538C2.2778 15.3084 2.56577 15.2769 3.1417 15.2139L3.21569 15.2058C4.45816 15.0699 5.07939 15.002 5.5978 14.7906C6.57661 14.3916 7.3577 13.6215 7.77041 12.6484C7.989 12.133 8.06568 11.5128 8.21905 10.2723Z" fill="white"/>
    </g>
    <defs>
    <linearGradient id="paint0_linear_3160_15443" x1="22.6727" y1="5.64245" x2="13.8486" y2="5.30694" gradientUnits="userSpaceOnUse">
    <stop offset="0.0258937" stop-color="#8A5ADE"/>
    <stop offset="0.73226" stop-color="#FF61B4"/>
    </linearGradient>
    <radialGradient id="paint1_radial_3160_15443" cx="0" cy="0" r="1" gradientUnits="userSpaceOnUse" gradientTransform="translate(12.3712 11.9997) rotate(-30.5451) scale(10.4373 10.444)">
    <stop stop-color="#FFF8D6"/>
    <stop offset="0.189416" stop-color="#FFEA7E"/>
    <stop offset="1" stop-color="#FFBCF8" stop-opacity="0"/>
    </radialGradient>
    <clipPath id="clip0_3160_15443">
    <rect width="24" height="24" rx="5" fill="white"/>
    </clipPath>
    </defs>
    </svg>
    