<svg width="197" height="24" viewBox="0 0 197 24" fill="none" xmlns="http://www.w3.org/2000/svg">
    <path d="M36.7699 7.27273V16H34.6605V7.27273H36.7699ZM38.0221 16V7.27273H40.1315V14.2869H43.7622V16H38.0221ZM44.7821 16V7.27273H46.8915V14.2869H50.5222V16H44.7821ZM56.822 7.27273H58.9271V12.902C58.9271 13.5526 58.7723 14.1193 58.4626 14.6023C58.153 15.0824 57.7211 15.4545 57.1672 15.7188C56.6132 15.9801 55.9697 16.1108 55.2368 16.1108C54.4953 16.1108 53.8476 15.9801 53.2936 15.7188C52.7396 15.4545 52.3092 15.0824 52.0024 14.6023C51.6956 14.1193 51.5422 13.5526 51.5422 12.902V7.27273H53.6515V12.7188C53.6515 13.0199 53.7169 13.2884 53.8476 13.5241C53.9811 13.7599 54.1672 13.9446 54.4058 14.0781C54.6444 14.2116 54.9214 14.2784 55.2368 14.2784C55.5521 14.2784 55.8277 14.2116 56.0635 14.0781C56.3021 13.9446 56.4882 13.7599 56.6217 13.5241C56.7552 13.2884 56.822 13.0199 56.822 12.7188V7.27273ZM64.8945 9.8892C64.8661 9.5767 64.7397 9.33381 64.5153 9.16051C64.2937 8.98438 63.9769 8.89631 63.565 8.89631C63.2923 8.89631 63.065 8.93182 62.8832 9.00284C62.7013 9.07386 62.565 9.17188 62.4741 9.29688C62.3832 9.41903 62.3363 9.55966 62.3334 9.71875C62.3278 9.84943 62.3533 9.96449 62.4102 10.0639C62.4698 10.1634 62.555 10.2514 62.6658 10.3281C62.7795 10.402 62.9158 10.4673 63.0749 10.5241C63.234 10.581 63.413 10.6307 63.6119 10.6733L64.3619 10.8438C64.7937 10.9375 65.1744 11.0625 65.5039 11.2188C65.8363 11.375 66.1147 11.5611 66.3391 11.777C66.5664 11.9929 66.7383 12.2415 66.8548 12.5227C66.9712 12.804 67.0309 13.1193 67.0337 13.4688C67.0309 14.0199 66.8917 14.4929 66.6161 14.8878C66.3406 15.2827 65.9442 15.5852 65.4272 15.7955C64.913 16.0057 64.2923 16.1108 63.565 16.1108C62.8349 16.1108 62.1985 16.0014 61.6559 15.7827C61.1133 15.5639 60.6914 15.2315 60.3903 14.7855C60.0891 14.3395 59.9343 13.7756 59.9258 13.0938H61.9457C61.9627 13.375 62.038 13.6094 62.1715 13.7969C62.305 13.9844 62.4883 14.1264 62.7212 14.223C62.957 14.3196 63.2298 14.3679 63.5394 14.3679C63.8235 14.3679 64.065 14.3295 64.2638 14.2528C64.4656 14.1761 64.6204 14.0696 64.7283 13.9332C64.8363 13.7969 64.8917 13.6406 64.8945 13.4645C64.8917 13.2997 64.8406 13.1591 64.7411 13.0426C64.6417 12.9233 64.4883 12.821 64.2809 12.7358C64.0763 12.6477 63.815 12.5668 63.4968 12.4929L62.5849 12.2798C61.8292 12.1065 61.234 11.8267 60.7994 11.4403C60.3647 11.0511 60.1488 10.5256 60.1516 9.86364C60.1488 9.32386 60.2937 8.85085 60.5863 8.4446C60.8789 8.03835 61.2837 7.72159 61.8008 7.49432C62.3178 7.26705 62.9073 7.15341 63.5692 7.15341C64.2454 7.15341 64.832 7.26847 65.3292 7.49858C65.8292 7.72585 66.217 8.04545 66.4925 8.45739C66.7681 8.86932 66.9087 9.34659 66.9144 9.8892H64.8945ZM67.7416 8.9858V7.27273H75.118V8.9858H72.4717V16H70.3921V8.9858H67.7416ZM76.0762 16V7.27273H79.6813C80.3347 7.27273 80.8986 7.39062 81.373 7.62642C81.8503 7.85937 82.2182 8.1946 82.4767 8.6321C82.7353 9.06676 82.8645 9.58239 82.8645 10.179C82.8645 10.7841 82.7324 11.2983 82.4682 11.7216C82.204 12.142 81.829 12.4631 81.3432 12.6847C80.8574 12.9034 80.2821 13.0128 79.6174 13.0128H77.3375V11.3509H79.2253C79.5435 11.3509 79.8091 11.3097 80.0222 11.2273C80.2381 11.142 80.4015 11.0142 80.5122 10.8438C80.623 10.6705 80.6784 10.4489 80.6784 10.179C80.6784 9.90909 80.623 9.68608 80.5122 9.50994C80.4015 9.33097 80.2381 9.19744 80.0222 9.10938C79.8063 9.01847 79.5407 8.97301 79.2253 8.97301H78.1855V16H76.0762ZM80.9895 12.0114L83.1628 16H80.8617L78.731 12.0114H80.9895ZM85.8373 16H83.5702L86.5148 7.27273H89.3231L92.2677 16H90.0006L87.9509 9.47159H87.8827L85.8373 16ZM85.5347 12.5653H90.2733V14.1676H85.5347V12.5653ZM91.7599 8.9858V7.27273H99.1364V8.9858H96.4901V16H94.4105V8.9858H91.7599ZM102.204 7.27273V16H100.095V7.27273H102.204ZM111.693 11.6364C111.693 12.5966 111.509 13.4105 111.139 14.0781C110.77 14.7457 110.27 15.2528 109.639 15.5994C109.012 15.946 108.307 16.1193 107.526 16.1193C106.742 16.1193 106.036 15.9446 105.408 15.5952C104.78 15.2457 104.281 14.7386 103.912 14.0739C103.546 13.4062 103.362 12.5937 103.362 11.6364C103.362 10.6761 103.546 9.86222 103.912 9.1946C104.281 8.52699 104.78 8.01989 105.408 7.6733C106.036 7.3267 106.742 7.15341 107.526 7.15341C108.307 7.15341 109.012 7.3267 109.639 7.6733C110.27 8.01989 110.77 8.52699 111.139 9.1946C111.509 9.86222 111.693 10.6761 111.693 11.6364ZM109.537 11.6364C109.537 11.0682 109.456 10.5881 109.294 10.196C109.135 9.80398 108.905 9.5071 108.604 9.3054C108.306 9.10369 107.946 9.00284 107.526 9.00284C107.108 9.00284 106.749 9.10369 106.448 9.3054C106.146 9.5071 105.915 9.80398 105.753 10.196C105.594 10.5881 105.514 11.0682 105.514 11.6364C105.514 12.2045 105.594 12.6847 105.753 13.0767C105.915 13.4687 106.146 13.7656 106.448 13.9673C106.749 14.169 107.108 14.2699 107.526 14.2699C107.946 14.2699 108.306 14.169 108.604 13.9673C108.905 13.7656 109.135 13.4687 109.294 13.0767C109.456 12.6847 109.537 12.2045 109.537 11.6364ZM120.28 7.27273V16H118.491L115.018 10.9631H114.962V16H112.853V7.27273H114.668L118.103 12.3011H118.175V7.27273H120.28ZM129.768 10.1236C129.72 9.9446 129.649 9.78693 129.555 9.65057C129.461 9.51136 129.346 9.39347 129.21 9.29688C129.074 9.20028 128.917 9.12784 128.741 9.07955C128.565 9.02841 128.372 9.00284 128.162 9.00284C127.738 9.00284 127.372 9.10511 127.062 9.30966C126.755 9.5142 126.518 9.8125 126.351 10.2045C126.183 10.5937 126.099 11.0668 126.099 11.6236C126.099 12.1832 126.18 12.6605 126.342 13.0554C126.504 13.4503 126.738 13.7514 127.045 13.9588C127.352 14.1662 127.724 14.2699 128.162 14.2699C128.548 14.2699 128.875 14.2074 129.142 14.0824C129.412 13.9545 129.616 13.7741 129.755 13.5412C129.895 13.3082 129.964 13.0341 129.964 12.7188L130.356 12.7656H128.234V11.2273H131.997V12.3821C131.997 13.1634 131.831 13.8324 131.498 14.3892C131.169 14.946 130.714 15.3736 130.135 15.6719C129.558 15.9702 128.895 16.1193 128.145 16.1193C127.312 16.1193 126.581 15.9389 125.95 15.5781C125.319 15.2173 124.828 14.7031 124.476 14.0355C124.123 13.3651 123.947 12.5696 123.947 11.6491C123.947 10.9332 124.054 10.2983 124.267 9.74432C124.48 9.1875 124.777 8.71591 125.157 8.32955C125.541 7.94318 125.984 7.65057 126.487 7.4517C126.993 7.25284 127.537 7.15341 128.119 7.15341C128.625 7.15341 129.095 7.22585 129.53 7.37074C129.967 7.51562 130.353 7.72017 130.689 7.98438C131.027 8.24858 131.301 8.5625 131.511 8.92614C131.721 9.28977 131.852 9.68892 131.903 10.1236H129.768ZM133.168 16V7.27273H139.253V8.9858H135.278V10.7756H138.942V12.4929H135.278V14.2869H139.253V16H133.168ZM147.93 7.27273V16H146.14L142.667 10.9631H142.612V16H140.502V7.27273H142.318L145.752 12.3011H145.825V7.27273H147.93ZM149.184 16V7.27273H155.27V8.9858H151.294V10.7756H154.958V12.4929H151.294V14.2869H155.27V16H149.184ZM156.519 16V7.27273H160.124C160.777 7.27273 161.341 7.39062 161.815 7.62642C162.293 7.85937 162.661 8.1946 162.919 8.6321C163.178 9.06676 163.307 9.58239 163.307 10.179C163.307 10.7841 163.175 11.2983 162.911 11.7216C162.646 12.142 162.271 12.4631 161.786 12.6847C161.3 12.9034 160.725 13.0128 160.06 13.0128H157.78V11.3509H159.668C159.986 11.3509 160.251 11.3097 160.465 11.2273C160.68 11.142 160.844 11.0142 160.955 10.8438C161.065 10.6705 161.121 10.4489 161.121 10.179C161.121 9.90909 161.065 9.68608 160.955 9.50994C160.844 9.33097 160.68 9.19744 160.465 9.10938C160.249 9.01847 159.983 8.97301 159.668 8.97301H158.628V16H156.519ZM161.432 12.0114L163.605 16H161.304L159.173 12.0114H161.432ZM166.28 16H164.013L166.957 7.27273H169.765L172.71 16H170.443L168.393 9.47159H168.325L166.28 16ZM165.977 12.5653H170.716V14.1676H165.977V12.5653ZM172.202 8.9858V7.27273H179.579V8.9858H176.932V16H174.853V8.9858H172.202ZM188.376 11.6364C188.376 12.5966 188.191 13.4105 187.822 14.0781C187.452 14.7457 186.952 15.2528 186.322 15.5994C185.694 15.946 184.989 16.1193 184.208 16.1193C183.424 16.1193 182.718 15.9446 182.09 15.5952C181.462 15.2457 180.964 14.7386 180.594 14.0739C180.228 13.4062 180.045 12.5937 180.045 11.6364C180.045 10.6761 180.228 9.86222 180.594 9.1946C180.964 8.52699 181.462 8.01989 182.09 7.6733C182.718 7.3267 183.424 7.15341 184.208 7.15341C184.989 7.15341 185.694 7.3267 186.322 7.6733C186.952 8.01989 187.452 8.52699 187.822 9.1946C188.191 9.86222 188.376 10.6761 188.376 11.6364ZM186.219 11.6364C186.219 11.0682 186.138 10.5881 185.977 10.196C185.817 9.80398 185.587 9.5071 185.286 9.3054C184.988 9.10369 184.629 9.00284 184.208 9.00284C183.79 9.00284 183.431 9.10369 183.13 9.3054C182.829 9.5071 182.597 9.80398 182.435 10.196C182.276 10.5881 182.197 11.0682 182.197 11.6364C182.197 12.2045 182.276 12.6847 182.435 13.0767C182.597 13.4687 182.829 13.7656 183.13 13.9673C183.431 14.169 183.79 14.2699 184.208 14.2699C184.629 14.2699 184.988 14.169 185.286 13.9673C185.587 13.7656 185.817 13.4687 185.977 13.0767C186.138 12.6847 186.219 12.2045 186.219 11.6364ZM189.535 16V7.27273H193.14C193.794 7.27273 194.358 7.39062 194.832 7.62642C195.309 7.85937 195.677 8.1946 195.936 8.6321C196.194 9.06676 196.324 9.58239 196.324 10.179C196.324 10.7841 196.191 11.2983 195.927 11.7216C195.663 12.142 195.288 12.4631 194.802 12.6847C194.316 12.9034 193.741 13.0128 193.076 13.0128H190.797V11.3509H192.684C193.003 11.3509 193.268 11.3097 193.481 11.2273C193.697 11.142 193.861 11.0142 193.971 10.8438C194.082 10.6705 194.138 10.4489 194.138 10.179C194.138 9.90909 194.082 9.68608 193.971 9.50994C193.861 9.33097 193.697 9.19744 193.481 9.10938C193.265 9.01847 193 8.97301 192.684 8.97301H191.645V16H189.535ZM194.449 12.0114L196.622 16H194.321L192.19 12.0114H194.449Z" fill="black" fill-opacity="0.9"/>
    <g clip-path="url(#clip0_3160_15441)">
    <rect width="24" height="24" rx="5" fill="#000C36"/>
    <path fill-rule="evenodd" clip-rule="evenodd" d="M16.9417 5.57535C16.8153 5.39382 16.8215 5.15045 16.9572 4.97606L24.7173 -5L27.9992 -2.18015L19.4542 7.09798C19.2978 7.26785 19.0487 7.31332 18.8427 7.20962L18.8005 7.18839C18.0577 6.81441 17.4188 6.26003 16.9417 5.57535ZM17.5637 10.3073C18.2133 9.50913 18.2891 7.8274 17.3622 7.03106C16.4354 6.23472 15.0093 6.15314 14.1408 7.17871C13.5103 7.92314 13.4476 8.58417 13.3866 9.22603C13.3104 10.0281 13.2371 10.8002 12.0626 11.6678C11.9918 11.72 12.0156 11.8344 12.1018 11.8509C15.9856 12.5947 17.5637 10.3073 17.5637 10.3073Z" fill="url(#paint0_linear_3160_15441)"/>
    <path fill-rule="evenodd" clip-rule="evenodd" d="M16.9417 5.57535C16.8153 5.39382 16.8215 5.15045 16.9572 4.97606L24.7173 -5L27.9992 -2.18015L19.4542 7.09798C19.2978 7.26785 19.0487 7.31332 18.8427 7.20962L18.8005 7.18839C18.0577 6.81441 17.4188 6.26003 16.9417 5.57535ZM17.5637 10.3073C18.2133 9.50913 18.2891 7.8274 17.3622 7.03106C16.4354 6.23472 15.0093 6.15314 14.1408 7.17871C13.5103 7.92314 13.4476 8.58417 13.3866 9.22603C13.3104 10.0281 13.2371 10.8002 12.0626 11.6678C11.9918 11.72 12.0156 11.8344 12.1018 11.8509C15.9856 12.5947 17.5637 10.3073 17.5637 10.3073Z" fill="url(#paint1_radial_3160_15441)"/>
    <path d="M8.21905 10.2723C8.2791 9.78665 8.30912 9.54381 8.35023 9.49736C8.42983 9.40743 8.57017 9.40743 8.64977 9.49736C8.69088 9.54381 8.7209 9.78665 8.78095 10.2723C8.93432 11.5128 9.011 12.133 9.22959 12.6484C9.6423 13.6215 10.4234 14.3916 11.4022 14.7906C11.9206 15.002 12.5418 15.0699 13.7843 15.2058L13.8583 15.2139C14.4342 15.2769 14.7222 15.3084 14.7708 15.3538C14.8556 15.4328 14.8556 15.5672 14.7708 15.6462C14.7222 15.6916 14.4342 15.7231 13.8583 15.7861L13.7843 15.7942C12.5418 15.9301 11.9206 15.998 11.4022 16.2094C10.4234 16.6084 9.6423 17.3785 9.22959 18.3516C9.011 18.867 8.93432 19.4872 8.78095 20.7277C8.7209 21.2134 8.69088 21.4562 8.64977 21.5026C8.57017 21.5926 8.42983 21.5926 8.35023 21.5026C8.30912 21.4562 8.2791 21.2134 8.21905 20.7277C8.06568 19.4872 7.989 18.867 7.77041 18.3516C7.3577 17.3785 6.57661 16.6084 5.5978 16.2094C5.07939 15.998 4.45816 15.9301 3.21569 15.7942L3.1417 15.7861C2.56577 15.7231 2.2778 15.6916 2.2292 15.6462C2.14443 15.5672 2.14443 15.4328 2.2292 15.3538C2.2778 15.3084 2.56577 15.2769 3.1417 15.2139L3.21569 15.2058C4.45816 15.0699 5.07939 15.002 5.5978 14.7906C6.57661 14.3916 7.3577 13.6215 7.77041 12.6484C7.989 12.133 8.06568 11.5128 8.21905 10.2723Z" fill="white"/>
    </g>
    <defs>
    <linearGradient id="paint0_linear_3160_15441" x1="22.6727" y1="5.64245" x2="13.8486" y2="5.30694" gradientUnits="userSpaceOnUse">
    <stop offset="0.0258937" stop-color="#8A5ADE"/>
    <stop offset="0.73226" stop-color="#FF61B4"/>
    </linearGradient>
    <radialGradient id="paint1_radial_3160_15441" cx="0" cy="0" r="1" gradientUnits="userSpaceOnUse" gradientTransform="translate(12.3712 11.9997) rotate(-30.5451) scale(10.4373 10.444)">
    <stop stop-color="#FFF8D6"/>
    <stop offset="0.189416" stop-color="#FFEA7E"/>
    <stop offset="1" stop-color="#FFBCF8" stop-opacity="0"/>
    </radialGradient>
    <clipPath id="clip0_3160_15441">
    <rect width="24" height="24" rx="5" fill="white"/>
    </clipPath>
    </defs>
    </svg>
    